<?xml version="1.0" encoding="UTF-8"?>
<svg id="Calque_1" xmlns="http://www.w3.org/2000/svg" version="1.1" viewBox="0 0 235.33 154.54">
  <!-- Generator: Adobe Illustrator 29.3.1, SVG Export Plug-In . SVG Version: 2.1.0 Build 151)  -->
  <defs>
    <style>
      .st0 {
        fill: #fc0;
      }

      .st1 {
        fill: none;
        stroke: #fff;
        stroke-linejoin: round;
      }

      .st2 {
        fill: #e30613;
      }
    </style>
  </defs>
  <g id="_x39_o1L6w">
    <path class="st0" d="M126.73,97.25c.26-.24.32-.6.36-.94.16-1.39.04-3.16.15-4.62,1.31-17.26,5.9-37.05,13.73-52.51,3.63-7.17,13.3-23.2,23.21-18.92,8.44,3.65,10.49,20.09,10.97,28.14,1.01,17.11-2.39,36.98-7.87,53.17-3.39,10.01-11.79,29.45-22.19,33.51-6.42,2.51-10.99-1.66-13.53-7.16,1.02-.91,2.21-1.66,3.25-2.54,16.55-14.07,28.56-37.71,31.79-59.13.32-2.13.68-4.45.76-6.6.02-.48.13-1.18-.21-1.51h-6.2c-.62,1.63-.76,3.47-1.15,5.2-4.51,19.76-21.45,49.19-43.31,52.8-21.01,3.46-25.9-19.23-24.3-35.26.07-.69.49-2.37.44-2.89-.01-.13-.13-.36-.22-.36h-2.89c-.26.23-.33.55-.43.87-3.1,9.73-4.13,23.34-2.34,33.37,1.47,8.25,5.43,17.09,12.95,21.39-10.35,8.21-20.11-5.32-24.7-13.4-4.94-8.69-8.58-19.08-11.08-28.75-4.01-15.5-6.39-34.43-4.03-50.33.09-.59.15-1.35.48-1.82h24.46c-2.06,7.02-3.78,14.2-4.89,21.45-.76,4.98-1.42,10.56-1.6,15.57-.01.37-.14,1.66.24,1.78.76-.06,1.77.39,2.03-.52.51-1.75.68-4.25,1.09-6.13,3.14-14.7,10.45-37.48,21.96-47.59,13.24-11.63,20.05,4.17,21.97,15.41,3.21,18.81-.25,39.52-5.3,57.7-.07.18.06.63.21.63h6.2Z"/>
  </g>
  <g>
    <path class="st1" d="M22.82,101.13c-2.21.17-3.87-.86-4.01-3.23-.27-4.1,6.29-16.49,5.91-25.23,2.37-.1,4.71.36,5.83,1.11t.09.07c3.66,2.78,3.38,9.58,3.44,14.57,5.01-4.54,11.1-15.23,11.58-17.33,3.24-.13,6.44.78,6.54,2.08.71,7.84-6.98,20.99-4.87,25.31-1.26.61-2.46.98-3.57,1.06-2.21.17-3.87-.86-4.01-3.23-.14-1.85,1.14-5.36,2.54-9.47-2.32,3.39-4.87,6.39-6.78,7.37-.57.28-1.24.45-1.87.5-1.3.1-2.56-.32-3.25-1.62-.84-1.72-.69-4.91-.89-8.18-1.87,6.21-4.42,12.43-3.1,15.14-1.26.61-2.46.98-3.57,1.06Z"/>
    <path class="st1" d="M63.1,92.71c-2.02,3.12-4.38,5.56-6.97,5.84-4.83.56-7.3-3.69-6.22-9.36,1.08-5.67,5.97-11.23,11.85-11.68,2.37-.18,4.07.37,5.05,2.28.24-1.05.36-2.01.35-2.72,3.2-.12,5.91.63,6.29,1.91,1.2,3.79-5.01,13.46-2.9,17.78-1.26.61-2.5.98-3.57,1.06-2.21.17-3.87-.82-4.01-3.23-.04-.55.03-1.15.14-1.87ZM56.96,88.09c-.49,2.46.01,4.92,1.79,4.78,1.89-.14,4.66-4.4,6.52-8.7.73-1.88-.26-2.88-2.46-2.71-2.99.27-5.3,3.89-5.84,6.63Z"/>
    <path class="st1" d="M87.16,81.1c-1.22.09-5.42,3.86-7.1,8.43-.89,2.45-1.1,4.92-.3,6.52-1.26.61-2.46.98-3.57,1.06-2.21.17-3.87-.86-4.01-3.23-.27-4.1,4.6-13.15,4.19-17.52,3.24-.12,5.91.63,6.33,1.9.26.81.14,1.89-.12,3.1,2.06-2.14,6.8-5.98,10-6.23,1.34-.1,2.36.34,2.75,1.26,1.51,3.69-5.45,14.45-3.35,18.73-1.26.65-2.5,1.02-3.56,1.1-2.21.17-3.87-.86-4.01-3.27-.2-3.24,1.88-6.64,3.03-11.33.09-.4-.04-.55-.28-.53Z"/>
    <path class="st1" d="M108.79,84.1c-.51.04-.83-.02-.84-.09.12-1.56,1.41-6.05-1-5.87-2.36.22-4.35,3.26-5.11,5.38-1.43,4.11.11,6.73,3.9,6.45,3.23-.28,4.53-1.45,6.08-3,1.92.69-1.61,7.06-8.24,7.96-6.59.89-10.25-3.39-9.17-9.1,1.07-5.75,6.48-11.27,13.58-11.81,4.29-.48,7.79,2.86,6.16,7.03-.83,2.16-3.86,2.95-5.36,3.06Z"/>
    <path class="st1" d="M128.36,78.03c-1.22.09-6.48,5.52-8.01,10.48-.37,1.89-.41,3.44.1,4.47-1.26.61-2.46.98-3.57,1.06-2.21.17-3.87-.86-4.01-3.23-.27-4.1,6.3-16.89,5.92-25.62,3.24-.12,6.42.51,6.54,2.08.25,3.27-.9,7.48-2.21,11.66,2.08-2.38,7.15-6.65,10.58-6.9,1.34-.1,2.37.34,2.75,1.26,1.51,3.69-5.06,14.42-2.95,18.7-1.26.65-2.5,1.02-3.56,1.1-2.21.17-3.87-.86-4.01-3.27-.2-3.24,1.48-6.61,2.64-11.3.09-.36,0-.51-.2-.5Z"/>
    <path class="st1" d="M153.14,83.85c1.92.69-1.74,7.46-8.4,7.97-7.07.89-10.25-3.39-9.17-9.1,1.07-5.75,6.09-11.24,13.19-11.78,5.07-.58,8.18,2.83,6.55,7-1.56,4-8.02,6.71-12.57,6.85.58,1.46,1.99,2.23,4.16,2.06,2.8-.25,4.69-1.46,6.24-3.01ZM142.78,81.15c2.54-.51,7.08-1.8,6.87-4.64-.08-1.1-.79-1.53-1.89-1.44-2.68.24-4.3,3.89-4.97,6.09Z"/>
    <path class="st1" d="M169.04,74.92c-1.22.09-5.42,3.86-7.1,8.43-.89,2.45-1.1,4.92-.3,6.52-1.26.61-2.46.98-3.57,1.06-2.21.17-3.87-.86-4.01-3.23-.27-4.1,4.6-13.15,4.19-17.52,3.24-.12,5.92.63,6.33,1.9.26.81.14,1.89-.12,3.1,2.06-2.14,6.8-5.98,10-6.23,1.34-.1,2.37.34,2.75,1.26,1.51,3.69-5.45,14.45-3.35,18.73-1.26.65-2.5,1.02-3.56,1.1-2.21.17-3.87-.86-4.01-3.27-.2-3.24,1.88-6.64,3.03-11.33.09-.4-.04-.55-.28-.53Z"/>
    <path class="st1" d="M199.94,69.42c.57,1.74-1.05,7.57-3.17,13.72-2.67,7.7-5.31,14.2-12.33,14.73-3.15.24-6.06-.97-7.36-3.01-1.08-1.7-.55-3.61-.1-3.96,2.49,2.03,4.34,2.37,6.12,2.23,4.85-.37,6.24-7.69,7.53-11.63-2.2,3.89-4.97,7.19-8,7.5-4.83.56-7.3-3.69-6.22-9.36,1.08-5.67,5.97-11.23,11.85-11.68,2.37-.18,4.07.37,5.05,2.28.28-1.05.4-2.01.35-2.72,3.2-.12,5.92.63,6.29,1.91ZM183.46,78.55c-.49,2.46.01,4.92,1.79,4.78,1.89-.14,4.66-4.4,6.52-8.7.73-1.88-.26-2.88-2.46-2.71-2.52.23-5.15,3.24-5.84,6.63Z"/>
    <path class="st1" d="M198.92,77.94c1.07-5.75,6.48-11.27,13.58-11.81,4.99-.57,8.2,3.55,7.12,9.22-1.08,5.67-6.44,11.31-13.58,11.85-5.22.67-8.2-3.54-7.12-9.25ZM212.44,76.96c1.09-2.94,1.19-6.87-.98-6.71-2.36.22-4.59,3.84-5.42,6-1.05,2.89-1.14,6.98,1.03,6.82,2.36-.22,4.58-3.99,5.37-6.11Z"/>
  </g>
  <g>
    <path class="st2" d="M22.82,101.13c-2.21.17-3.87-.86-4.01-3.23-.27-4.1,6.29-16.49,5.91-25.23,2.37-.1,4.71.36,5.83,1.11t.09.07c3.66,2.78,3.38,9.58,3.44,14.57,5.01-4.54,11.1-15.23,11.58-17.33,3.24-.13,6.44.78,6.54,2.08.71,7.84-6.98,20.99-4.87,25.31-1.26.61-2.46.98-3.57,1.06-2.21.17-3.87-.86-4.01-3.23-.14-1.85,1.14-5.36,2.54-9.47-2.32,3.39-4.87,6.39-6.78,7.37-.57.28-1.24.45-1.87.5-1.3.1-2.56-.32-3.25-1.62-.84-1.72-.69-4.91-.89-8.18-1.87,6.21-4.42,12.43-3.1,15.14-1.26.61-2.46.98-3.57,1.06Z"/>
    <path class="st2" d="M63.1,92.71c-2.02,3.12-4.38,5.56-6.97,5.84-4.83.56-7.3-3.69-6.22-9.36,1.08-5.67,5.97-11.23,11.85-11.68,2.37-.18,4.07.37,5.05,2.28.24-1.05.36-2.01.35-2.72,3.2-.12,5.91.63,6.29,1.91,1.2,3.79-5.01,13.46-2.9,17.78-1.26.61-2.5.98-3.57,1.06-2.21.17-3.87-.82-4.01-3.23-.04-.55.03-1.15.14-1.87ZM56.96,88.09c-.49,2.46.01,4.92,1.79,4.78,1.89-.14,4.66-4.4,6.52-8.7.73-1.88-.26-2.88-2.46-2.71-2.99.27-5.3,3.89-5.84,6.63Z"/>
    <path class="st2" d="M87.16,81.1c-1.22.09-5.42,3.86-7.1,8.43-.89,2.45-1.1,4.92-.3,6.52-1.26.61-2.46.98-3.57,1.06-2.21.17-3.87-.86-4.01-3.23-.27-4.1,4.6-13.15,4.19-17.52,3.24-.12,5.91.63,6.33,1.9.26.81.14,1.89-.12,3.1,2.06-2.14,6.8-5.98,10-6.23,1.34-.1,2.36.34,2.75,1.26,1.51,3.69-5.45,14.45-3.35,18.73-1.26.65-2.5,1.02-3.56,1.1-2.21.17-3.87-.86-4.01-3.27-.2-3.24,1.88-6.64,3.03-11.33.09-.4-.04-.55-.28-.53Z"/>
    <path class="st2" d="M108.79,84.1c-.51.04-.83-.02-.84-.09.12-1.56,1.41-6.05-1-5.87-2.36.22-4.35,3.26-5.11,5.38-1.43,4.11.11,6.73,3.9,6.45,3.23-.28,4.53-1.45,6.08-3,1.92.69-1.61,7.06-8.24,7.96-6.59.89-10.25-3.39-9.17-9.1,1.07-5.75,6.48-11.27,13.58-11.81,4.29-.48,7.79,2.86,6.16,7.03-.83,2.16-3.86,2.95-5.36,3.06Z"/>
    <path class="st2" d="M128.36,78.03c-1.22.09-6.48,5.52-8.01,10.48-.37,1.89-.41,3.44.1,4.47-1.26.61-2.46.98-3.57,1.06-2.21.17-3.87-.86-4.01-3.23-.27-4.1,6.3-16.89,5.92-25.62,3.24-.12,6.42.51,6.54,2.08.25,3.27-.9,7.48-2.21,11.66,2.08-2.38,7.15-6.65,10.58-6.9,1.34-.1,2.37.34,2.75,1.26,1.51,3.69-5.06,14.42-2.95,18.7-1.26.65-2.5,1.02-3.56,1.1-2.21.17-3.87-.86-4.01-3.27-.2-3.24,1.48-6.61,2.64-11.3.09-.36,0-.51-.2-.5Z"/>
    <path class="st2" d="M153.14,83.85c1.92.69-1.74,7.46-8.4,7.97-7.07.89-10.25-3.39-9.17-9.1,1.07-5.75,6.09-11.24,13.19-11.78,5.07-.58,8.18,2.83,6.55,7-1.56,4-8.02,6.71-12.57,6.85.58,1.46,1.99,2.23,4.16,2.06,2.8-.25,4.69-1.46,6.24-3.01ZM142.78,81.15c2.54-.51,7.08-1.8,6.87-4.64-.08-1.1-.79-1.53-1.89-1.44-2.68.24-4.3,3.89-4.97,6.09Z"/>
    <path class="st2" d="M169.04,74.92c-1.22.09-5.42,3.86-7.1,8.43-.89,2.45-1.1,4.92-.3,6.52-1.26.61-2.46.98-3.57,1.06-2.21.17-3.87-.86-4.01-3.23-.27-4.1,4.6-13.15,4.19-17.52,3.24-.12,5.92.63,6.33,1.9.26.81.14,1.89-.12,3.1,2.06-2.14,6.8-5.98,10-6.23,1.34-.1,2.37.34,2.75,1.26,1.51,3.69-5.45,14.45-3.35,18.73-1.26.65-2.5,1.02-3.56,1.1-2.21.17-3.87-.86-4.01-3.27-.2-3.24,1.88-6.64,3.03-11.33.09-.4-.04-.55-.28-.53Z"/>
    <path class="st2" d="M199.94,69.42c.57,1.74-1.05,7.57-3.17,13.72-2.67,7.7-5.31,14.2-12.33,14.73-3.15.24-6.06-.97-7.36-3.01-1.08-1.7-.55-3.61-.1-3.96,2.49,2.03,4.34,2.37,6.12,2.23,4.85-.37,6.24-7.69,7.53-11.63-2.2,3.89-4.97,7.19-8,7.5-4.83.56-7.3-3.69-6.22-9.36,1.08-5.67,5.97-11.23,11.85-11.68,2.37-.18,4.07.37,5.05,2.28.28-1.05.4-2.01.35-2.72,3.2-.12,5.92.63,6.29,1.91ZM183.46,78.55c-.49,2.46.01,4.92,1.79,4.78,1.89-.14,4.66-4.4,6.52-8.7.73-1.88-.26-2.88-2.46-2.71-2.52.23-5.15,3.24-5.84,6.63Z"/>
    <path class="st2" d="M198.92,77.94c1.07-5.75,6.48-11.27,13.58-11.81,4.99-.57,8.2,3.55,7.12,9.22-1.08,5.67-6.44,11.31-13.58,11.85-5.22.67-8.2-3.54-7.12-9.25ZM212.44,76.96c1.09-2.94,1.19-6.87-.98-6.71-2.36.22-4.59,3.84-5.42,6-1.05,2.89-1.14,6.98,1.03,6.82,2.36-.22,4.58-3.99,5.37-6.11Z"/>
  </g>
</svg>